<svg xmlns="http://www.w3.org/2000/svg" xmlns:xlink="http://www.w3.org/1999/xlink" width="1920" zoomAndPan="magnify" viewBox="0 0 1440 809.999993" height="1080" preserveAspectRatio="xMidYMid meet" version="1.0"><defs><filter x="0%" y="0%" width="100%" height="100%" id="b16a98363c"><feColorMatrix values="0 0 0 0 1 0 0 0 0 1 0 0 0 0 1 0 0 0 1 0" color-interpolation-filters="sRGB"/></filter><mask id="d4d311b286"><g filter="url(#b16a98363c)"><rect x="-144" width="1728" fill="#000000" y="-80.999999" height="971.999992" fill-opacity="0.7"/></g></mask><clipPath id="b76e332568"><path d="M 524 0 L 528 0 L 528 633.75 L 524 633.75 Z M 524 0 " clip-rule="nonzero"/></clipPath><clipPath id="0805fa9913"><path d="M 408 0 L 411 0 L 411 633.75 L 408 633.75 Z M 408 0 " clip-rule="nonzero"/></clipPath><clipPath id="7e0f61d7bf"><path d="M 291 0 L 295 0 L 295 633.75 L 291 633.75 Z M 291 0 " clip-rule="nonzero"/></clipPath><clipPath id="8fb0ad4f41"><path d="M 174 0 L 178 0 L 178 633.75 L 174 633.75 Z M 174 0 " clip-rule="nonzero"/></clipPath><clipPath id="bd06a85a7d"><path d="M 83.3125 559 L 605 559 L 605 562 L 83.3125 562 Z M 83.3125 559 " clip-rule="nonzero"/></clipPath><clipPath id="d1aa4d4ce2"><path d="M 83.3125 442 L 605 442 L 605 446 L 83.3125 446 Z M 83.3125 442 " clip-rule="nonzero"/></clipPath><clipPath id="06dfb51eca"><path d="M 83.3125 325 L 605 325 L 605 329 L 83.3125 329 Z M 83.3125 325 " clip-rule="nonzero"/></clipPath><clipPath id="276e0da5e7"><path d="M 83.3125 209 L 605 209 L 605 212 L 83.3125 212 Z M 83.3125 209 " clip-rule="nonzero"/></clipPath><clipPath id="d6bc134734"><path d="M 83.3125 92 L 605 92 L 605 96 L 83.3125 96 Z M 83.3125 92 " clip-rule="nonzero"/></clipPath><clipPath id="143d9c50e9"><rect x="0" width="605" y="0" height="736"/></clipPath><mask id="ea79463fe7"><g filter="url(#b16a98363c)"><rect x="-144" width="1728" fill="#000000" y="-80.999999" height="971.999992" fill-opacity="0.7"/></g></mask><clipPath id="f81c03292a"><path d="M 71 0 L 75 0 L 75 633 L 71 633 Z M 71 0 " clip-rule="nonzero"/></clipPath><clipPath id="3ef9b376d0"><path d="M 187 0 L 191 0 L 191 633 L 187 633 Z M 187 0 " clip-rule="nonzero"/></clipPath><clipPath id="5ba1d8a923"><path d="M 304 0 L 308 0 L 308 633 L 304 633 Z M 304 0 " clip-rule="nonzero"/></clipPath><clipPath id="f14c91b1b0"><path d="M 0 558 L 398.539062 558 L 398.539062 562 L 0 562 Z M 0 558 " clip-rule="nonzero"/></clipPath><clipPath id="d079bc30cd"><path d="M 0 442 L 398.539062 442 L 398.539062 445 L 0 445 Z M 0 442 " clip-rule="nonzero"/></clipPath><clipPath id="391b817f9e"><path d="M 0 325 L 398.539062 325 L 398.539062 329 L 0 329 Z M 0 325 " clip-rule="nonzero"/></clipPath><clipPath id="8541587d76"><path d="M 0 208 L 398.539062 208 L 398.539062 212 L 0 212 Z M 0 208 " clip-rule="nonzero"/></clipPath><clipPath id="4138d66895"><path d="M 0 92 L 398.539062 92 L 398.539062 96 L 0 96 Z M 0 92 " clip-rule="nonzero"/></clipPath><clipPath id="90078486e6"><rect x="0" width="481" y="0" height="735"/></clipPath><clipPath id="bf453d3dc4"><path d="M 0 634.03125 L 1440 634.03125 L 1440 810 L 0 810 Z M 0 634.03125 " clip-rule="nonzero"/></clipPath><mask id="339159b6c2"><g filter="url(#b16a98363c)"><rect x="-144" width="1728" fill="#000000" y="-80.999999" height="971.999992" fill-opacity="0.7"/></g></mask><clipPath id="6796e52e48"><path d="M 173 0 L 177 0 L 177 633 L 173 633 Z M 173 0 " clip-rule="nonzero"/></clipPath><clipPath id="1a402bd2e0"><path d="M 290 0 L 293 0 L 293 633 L 290 633 Z M 290 0 " clip-rule="nonzero"/></clipPath><clipPath id="30542256ba"><path d="M 406 0 L 410 0 L 410 633 L 406 633 Z M 406 0 " clip-rule="nonzero"/></clipPath><clipPath id="dd14bd1551"><path d="M 523 0 L 526 0 L 526 633 L 523 633 Z M 523 0 " clip-rule="nonzero"/></clipPath><clipPath id="b6d6e16a42"><path d="M 639 0 L 643 0 L 643 633 L 639 633 Z M 639 0 " clip-rule="nonzero"/></clipPath><clipPath id="725101aaf4"><path d="M 98.613281 558 L 733.863281 558 L 733.863281 562 L 98.613281 562 Z M 98.613281 558 " clip-rule="nonzero"/></clipPath><clipPath id="e705a6e2c0"><path d="M 98.613281 442 L 733.863281 442 L 733.863281 445 L 98.613281 445 Z M 98.613281 442 " clip-rule="nonzero"/></clipPath><clipPath id="48f137ef81"><path d="M 98.613281 325 L 733.863281 325 L 733.863281 329 L 98.613281 329 Z M 98.613281 325 " clip-rule="nonzero"/></clipPath><clipPath id="1a8719f13f"><path d="M 98.613281 208 L 733.863281 208 L 733.863281 212 L 98.613281 212 Z M 98.613281 208 " clip-rule="nonzero"/></clipPath><clipPath id="acc95eed50"><path d="M 98.613281 92 L 733.863281 92 L 733.863281 96 L 98.613281 96 Z M 98.613281 92 " clip-rule="nonzero"/></clipPath><clipPath id="73e285b5a3"><rect x="0" width="817" y="0" height="735"/></clipPath><clipPath id="58c850918c"><path d="M 0 0 L 1440 0 L 1440 96.664062 L 0 96.664062 Z M 0 0 " clip-rule="nonzero"/></clipPath></defs><g mask="url(#d4d311b286)"><g transform="matrix(1, 0, 0, 1, 835, 0.000000000000039746)"><g clip-path="url(#143d9c50e9)"><g clip-path="url(#b76e332568)"><path fill="#f7d6df" d="M 524.984375 -81.195312 L 527.707031 -81.195312 L 527.707031 735.695312 L 524.984375 735.695312 Z M 524.984375 -81.195312 " fill-opacity="1" fill-rule="nonzero"/></g><g clip-path="url(#0805fa9913)"><path fill="#f7d6df" d="M 408.167969 -81.195312 L 410.890625 -81.195312 L 410.890625 735.695312 L 408.167969 735.695312 Z M 408.167969 -81.195312 " fill-opacity="1" fill-rule="nonzero"/></g><g clip-path="url(#7e0f61d7bf)"><path fill="#f7d6df" d="M 291.625 -81.195312 L 294.347656 -81.195312 L 294.347656 735.695312 L 291.625 735.695312 Z M 291.625 -81.195312 " fill-opacity="1" fill-rule="nonzero"/></g><g clip-path="url(#8fb0ad4f41)"><path fill="#f7d6df" d="M 174.808594 -81.195312 L 177.53125 -81.195312 L 177.53125 735.695312 L 174.808594 735.695312 Z M 174.808594 -81.195312 " fill-opacity="1" fill-rule="nonzero"/></g><g clip-path="url(#bd06a85a7d)"><path fill="#f7d6df" d="M 1.082031 559.246094 L 817.972656 559.246094 L 817.972656 561.96875 L 1.082031 561.96875 Z M 1.082031 559.246094 " fill-opacity="1" fill-rule="nonzero"/></g><g clip-path="url(#d1aa4d4ce2)"><path fill="#f7d6df" d="M 1.082031 442.703125 L 817.972656 442.703125 L 817.972656 445.425781 L 1.082031 445.425781 Z M 1.082031 442.703125 " fill-opacity="1" fill-rule="nonzero"/></g><g clip-path="url(#06dfb51eca)"><path fill="#f7d6df" d="M 1.082031 325.886719 L 817.972656 325.886719 L 817.972656 328.609375 L 1.082031 328.609375 Z M 1.082031 325.886719 " fill-opacity="1" fill-rule="nonzero"/></g><g clip-path="url(#276e0da5e7)"><path fill="#f7d6df" d="M 1.082031 209.070312 L 817.972656 209.070312 L 817.972656 211.792969 L 1.082031 211.792969 Z M 1.082031 209.070312 " fill-opacity="1" fill-rule="nonzero"/></g><g clip-path="url(#d6bc134734)"><path fill="#f7d6df" d="M 1.082031 92.527344 L 817.972656 92.527344 L 817.972656 95.25 L 1.082031 95.25 Z M 1.082031 92.527344 " fill-opacity="1" fill-rule="nonzero"/></g></g></g></g><g mask="url(#ea79463fe7)"><g transform="matrix(1, 0, 0, 1, 0, 0.000000000000039746)"><g clip-path="url(#90078486e6)"><g clip-path="url(#f81c03292a)"><path fill="#f7d6df" d="M 74.28125 -81.089844 L 71.5625 -81.089844 L 71.5625 734.710938 L 74.28125 734.710938 Z M 74.28125 -81.089844 " fill-opacity="1" fill-rule="nonzero"/></g><g clip-path="url(#3ef9b376d0)"><path fill="#f7d6df" d="M 190.671875 -81.089844 L 187.949219 -81.089844 L 187.949219 734.710938 L 190.671875 734.710938 Z M 190.671875 -81.089844 " fill-opacity="1" fill-rule="nonzero"/></g><g clip-path="url(#5ba1d8a923)"><path fill="#f7d6df" d="M 307.328125 -81.089844 L 304.609375 -81.089844 L 304.609375 734.710938 L 307.328125 734.710938 Z M 307.328125 -81.089844 " fill-opacity="1" fill-rule="nonzero"/></g><g clip-path="url(#f14c91b1b0)"><path fill="#f7d6df" d="M 480.824219 558.5 L -334.976562 558.5 L -334.976562 561.21875 L 480.824219 561.21875 Z M 480.824219 558.5 " fill-opacity="1" fill-rule="nonzero"/></g><g clip-path="url(#d079bc30cd)"><path fill="#f7d6df" d="M 480.824219 442.113281 L -334.976562 442.113281 L -334.976562 444.832031 L 480.824219 444.832031 Z M 480.824219 442.113281 " fill-opacity="1" fill-rule="nonzero"/></g><g clip-path="url(#391b817f9e)"><path fill="#f7d6df" d="M 480.824219 325.453125 L -334.976562 325.453125 L -334.976562 328.171875 L 480.824219 328.171875 Z M 480.824219 325.453125 " fill-opacity="1" fill-rule="nonzero"/></g><g clip-path="url(#8541587d76)"><path fill="#f7d6df" d="M 480.824219 208.792969 L -334.976562 208.792969 L -334.976562 211.511719 L 480.824219 211.511719 Z M 480.824219 208.792969 " fill-opacity="1" fill-rule="nonzero"/></g><g clip-path="url(#4138d66895)"><path fill="#f7d6df" d="M 480.824219 92.40625 L -334.976562 92.40625 L -334.976562 95.125 L 480.824219 95.125 Z M 480.824219 92.40625 " fill-opacity="1" fill-rule="nonzero"/></g></g></g></g><g clip-path="url(#bf453d3dc4)"><path fill="#f1c6cd" d="M 0 634.03125 L 1440.300781 634.03125 L 1440.300781 813.28125 L 0 813.28125 Z M 0 634.03125 " fill-opacity="1" fill-rule="nonzero"/></g><g mask="url(#339159b6c2)"><g transform="matrix(1, 0, 0, 1, 252, 0.000000000000039746)"><g clip-path="url(#73e285b5a3)"><g clip-path="url(#6796e52e48)"><path fill="#f7d6df" d="M 176.558594 -81.089844 L 173.839844 -81.089844 L 173.839844 734.710938 L 176.558594 734.710938 Z M 176.558594 -81.089844 " fill-opacity="1" fill-rule="nonzero"/></g><g clip-path="url(#1a402bd2e0)"><path fill="#f7d6df" d="M 292.949219 -81.089844 L 290.230469 -81.089844 L 290.230469 734.710938 L 292.949219 734.710938 Z M 292.949219 -81.089844 " fill-opacity="1" fill-rule="nonzero"/></g><g clip-path="url(#30542256ba)"><path fill="#f7d6df" d="M 409.605469 -81.089844 L 406.886719 -81.089844 L 406.886719 734.710938 L 409.605469 734.710938 Z M 409.605469 -81.089844 " fill-opacity="1" fill-rule="nonzero"/></g><g clip-path="url(#dd14bd1551)"><path fill="#f7d6df" d="M 525.996094 -81.089844 L 523.277344 -81.089844 L 523.277344 734.710938 L 525.996094 734.710938 Z M 525.996094 -81.089844 " fill-opacity="1" fill-rule="nonzero"/></g><g clip-path="url(#b6d6e16a42)"><path fill="#f7d6df" d="M 642.65625 -81.089844 L 639.933594 -81.089844 L 639.933594 734.710938 L 642.65625 734.710938 Z M 642.65625 -81.089844 " fill-opacity="1" fill-rule="nonzero"/></g><g clip-path="url(#725101aaf4)"><path fill="#f7d6df" d="M 816.148438 558.5 L 0.347656 558.5 L 0.347656 561.21875 L 816.148438 561.21875 Z M 816.148438 558.5 " fill-opacity="1" fill-rule="nonzero"/></g><g clip-path="url(#e705a6e2c0)"><path fill="#f7d6df" d="M 816.148438 442.113281 L 0.347656 442.113281 L 0.347656 444.832031 L 816.148438 444.832031 Z M 816.148438 442.113281 " fill-opacity="1" fill-rule="nonzero"/></g><g clip-path="url(#48f137ef81)"><path fill="#f7d6df" d="M 816.148438 325.453125 L 0.347656 325.453125 L 0.347656 328.171875 L 816.148438 328.171875 Z M 816.148438 325.453125 " fill-opacity="1" fill-rule="nonzero"/></g><g clip-path="url(#1a8719f13f)"><path fill="#f7d6df" d="M 816.148438 208.792969 L 0.347656 208.792969 L 0.347656 211.511719 L 816.148438 211.511719 Z M 816.148438 208.792969 " fill-opacity="1" fill-rule="nonzero"/></g><g clip-path="url(#acc95eed50)"><path fill="#f7d6df" d="M 816.148438 92.40625 L 0.347656 92.40625 L 0.347656 95.125 L 816.148438 95.125 Z M 816.148438 92.40625 " fill-opacity="1" fill-rule="nonzero"/></g></g></g></g><g clip-path="url(#58c850918c)"><path fill="#f1c6cd" d="M 0 -89.625 L 1440.109375 -89.625 L 1440.109375 96.664062 L 0 96.664062 Z M 0 -89.625 " fill-opacity="1" fill-rule="nonzero"/></g></svg>