<svg xmlns="http://www.w3.org/2000/svg" xmlns:xlink="http://www.w3.org/1999/xlink" width="1920" zoomAndPan="magnify" viewBox="0 0 1440 809.999993" height="1080" preserveAspectRatio="xMidYMid meet" version="1.0"><defs><g/><clipPath id="02c8ae9d4d"><path d="M 1314 398.253906 L 1398 398.253906 L 1398 483 L 1314 483 Z M 1314 398.253906 " clip-rule="nonzero"/></clipPath></defs><g clip-path="url(#02c8ae9d4d)"><path fill="#ffffff" d="M 1357.210938 481.992188 C 1354.628906 481.910156 1352.046875 481.71875 1349.488281 481.367188 C 1345.589844 480.78125 1341.945312 479.164062 1338.324219 477.6875 C 1327.480469 472.996094 1317.980469 463.996094 1315.164062 452.242188 C 1312.589844 440.222656 1316.15625 426.210938 1323.050781 416.167969 C 1327.324219 410.238281 1333.265625 405.449219 1339.929688 402.445312 C 1344.804688 400.511719 1349.941406 399.050781 1355.164062 398.484375 C 1357.859375 398.257812 1360.5625 398.464844 1363.242188 398.757812 C 1366.566406 399.0625 1370.058594 399.449219 1372.746094 401.628906 C 1374.363281 402.699219 1373.6875 405.230469 1371.691406 405.207031 C 1370.675781 405.171875 1369.78125 404.636719 1368.847656 404.289062 C 1366.136719 403.503906 1363.25 403.597656 1360.453125 403.390625 C 1356.511719 403.109375 1352.617188 403.796875 1348.851562 404.933594 C 1346.238281 405.707031 1343.605469 406.453125 1341.152344 407.65625 C 1337.964844 409.222656 1335.085938 411.34375 1332.433594 413.695312 C 1323.050781 422.300781 1318.988281 435.929688 1320.039062 448.410156 C 1321.242188 456.761719 1326.625 464.113281 1333.558594 468.738281 C 1338.394531 471.84375 1343.699219 474.265625 1349.28125 475.675781 C 1353.023438 476.328125 1356.851562 476.539062 1360.644531 476.394531 C 1367.367188 475.828125 1373.726562 472.285156 1378.734375 467.976562 C 1384.484375 463.027344 1388.269531 456.167969 1390.960938 449.160156 C 1393.328125 441.351562 1392.433594 432.699219 1389.34375 425.214844 C 1388.582031 422.882812 1387.308594 420.839844 1385.71875 418.980469 C 1383.777344 416.003906 1381.035156 413.792969 1378.355469 411.523438 C 1377.660156 410.929688 1376.941406 410.371094 1376.203125 409.832031 C 1374.246094 408.453125 1375.164062 405.105469 1377.523438 404.871094 C 1379.667969 404.660156 1381.285156 406.933594 1382.867188 408.097656 C 1383.816406 408.910156 1384.8125 409.667969 1385.742188 410.503906 C 1387.585938 412.144531 1389.066406 414.121094 1390.515625 416.101562 C 1391.351562 417.167969 1392.210938 418.199219 1392.863281 419.398438 C 1397.472656 428.5625 1399.25 439.382812 1396.707031 449.410156 C 1394.246094 457.050781 1390.171875 464.34375 1384.585938 470.140625 C 1377.3125 477.21875 1367.589844 482.5625 1357.210938 481.992188 Z M 1348.746094 438.347656 C 1347.070312 438.121094 1345.960938 436.335938 1346.523438 434.726562 C 1346.839844 432.597656 1347.144531 430.464844 1347.53125 428.34375 C 1348.105469 425.964844 1347.976562 423.035156 1349.832031 421.222656 C 1350.796875 420.421875 1352.320312 420.589844 1352.964844 421.703125 C 1353.480469 422.507812 1353.289062 423.421875 1353.152344 424.296875 C 1352.894531 426.070312 1352.734375 427.859375 1352.511719 429.636719 C 1352.238281 431.753906 1352.035156 433.878906 1351.835938 436.003906 C 1351.671875 437.492188 1350.191406 438.546875 1348.746094 438.347656 Z M 1366.050781 440.003906 C 1362.921875 439.261719 1363.679688 436.757812 1364.054688 434.378906 C 1364.355469 432.09375 1364.640625 429.804688 1365.113281 427.546875 C 1365.515625 425.90625 1365.476562 424.082031 1366.398438 422.625 C 1367.640625 420.914062 1370.511719 421.492188 1371.023438 423.535156 C 1371.261719 424.371094 1371.042969 425.25 1370.910156 426.089844 C 1370.648438 427.875 1370.261719 429.632812 1370.011719 431.417969 C 1369.75 433.441406 1369.515625 435.46875 1369.207031 437.484375 C 1369.070312 439.046875 1367.585938 440.222656 1366.050781 440.003906 Z M 1353.859375 460.179688 C 1351.242188 459.730469 1348.910156 458.375 1346.742188 456.902344 C 1344.914062 455.742188 1343.539062 454.035156 1342.300781 452.285156 C 1341.117188 450.464844 1339.574219 447.402344 1340.328125 445.238281 C 1340.878906 443.800781 1342.890625 443.21875 1344.085938 444.222656 C 1345.226562 445.210938 1345.398438 446.839844 1346.097656 448.117188 C 1346.84375 449.421875 1347.832031 450.59375 1348.894531 451.648438 C 1352.65625 454.722656 1357.03125 455.84375 1361.71875 454.304688 C 1364.53125 453.171875 1366.476562 450.628906 1368.125 448.195312 C 1369.558594 445.589844 1373.753906 447.027344 1373.289062 449.976562 C 1373.035156 451.5625 1369.828125 455.28125 1368.53125 456.402344 C 1364.710938 460.160156 1358.996094 461.183594 1353.859375 460.179688 Z M 1353.859375 460.179688 " fill-opacity="1" fill-rule="nonzero"/></g><g fill="#ffffff" fill-opacity="1"><g transform="translate(40.736063, 464.187356)"><g><path d="M 154.734375 -178.875 C 162.867188 -173.238281 166.9375 -167.765625 166.9375 -162.453125 C 166.9375 -159.304688 165.023438 -154.910156 161.203125 -149.265625 L 107.46875 -68.90625 L 107.46875 -21.390625 C 107.46875 -17.578125 107.34375 -14.71875 107.09375 -12.8125 C 106.851562 -10.90625 106.066406 -8.707031 104.734375 -6.21875 C 103.410156 -3.726562 101.171875 -1.984375 98.015625 -0.984375 C 94.867188 0.00390625 90.640625 0.5 85.328125 0.5 C 80.023438 0.5 75.796875 0.00390625 72.640625 -0.984375 C 69.492188 -1.984375 67.253906 -3.769531 65.921875 -6.34375 C 64.597656 -8.914062 63.8125 -11.15625 63.5625 -13.0625 C 63.3125 -14.96875 63.1875 -17.910156 63.1875 -21.890625 L 63.1875 -68.90625 L 9.453125 -149.265625 C 5.640625 -154.910156 3.734375 -159.304688 3.734375 -162.453125 C 3.734375 -167.765625 7.378906 -172.863281 14.671875 -177.75 C 21.972656 -182.644531 27.195312 -185.09375 30.34375 -185.09375 C 33.5 -185.09375 35.988281 -184.429688 37.8125 -183.109375 C 40.632812 -181.273438 43.617188 -177.875 46.765625 -172.90625 L 85.328125 -111.203125 L 123.890625 -172.90625 C 127.046875 -177.875 129.78125 -181.144531 132.09375 -182.71875 C 134.414062 -184.300781 137.113281 -185.09375 140.1875 -185.09375 C 143.257812 -185.09375 148.109375 -183.019531 154.734375 -178.875 Z M 154.734375 -178.875 "/></g></g></g><g fill="#ffffff" fill-opacity="1"><g transform="translate(215.126304, 464.187356)"><g><path d="M 6.21875 -65.421875 C 6.21875 -85.328125 13.179688 -101.75 27.109375 -114.6875 C 41.046875 -127.625 56.96875 -134.09375 74.875 -134.09375 C 92.789062 -134.09375 108.628906 -127.664062 122.390625 -114.8125 C 136.160156 -101.957031 143.046875 -85.578125 143.046875 -65.671875 C 143.046875 -51.910156 139.476562 -39.679688 132.34375 -28.984375 C 125.21875 -18.285156 116.550781 -10.40625 106.34375 -5.34375 C 96.144531 -0.289062 85.570312 2.234375 74.625 2.234375 C 63.6875 2.234375 53.070312 -0.457031 42.78125 -5.84375 C 32.5 -11.238281 23.832031 -19.203125 16.78125 -29.734375 C 9.738281 -40.265625 6.21875 -52.160156 6.21875 -65.421875 Z M 58.203125 -47.640625 C 63.515625 -43.578125 68.90625 -41.546875 74.375 -41.546875 C 79.851562 -41.546875 85.328125 -43.617188 90.796875 -47.765625 C 96.273438 -51.910156 99.015625 -58.046875 99.015625 -66.171875 C 99.015625 -74.296875 96.441406 -80.347656 91.296875 -84.328125 C 86.160156 -88.316406 80.601562 -90.3125 74.625 -90.3125 C 68.65625 -90.3125 63.097656 -88.238281 57.953125 -84.09375 C 52.816406 -79.945312 50.25 -73.847656 50.25 -65.796875 C 50.25 -57.753906 52.898438 -51.703125 58.203125 -47.640625 Z M 58.203125 -47.640625 "/></g></g></g><g fill="#ffffff" fill-opacity="1"><g transform="translate(368.122012, 464.187356)"><g><path d="M 93.046875 -16.421875 C 86.742188 -8.128906 76.707031 -3.984375 62.9375 -3.984375 C 49.175781 -3.984375 36.28125 -10.328125 24.25 -23.015625 C 12.226562 -35.703125 6.21875 -50.503906 6.21875 -67.421875 C 6.21875 -84.335938 12.269531 -99.179688 24.375 -111.953125 C 36.488281 -124.722656 49.757812 -131.109375 64.1875 -131.109375 C 69.820312 -131.109375 74.960938 -130.070312 79.609375 -128 C 84.253906 -125.925781 87.445312 -124.015625 89.1875 -122.265625 C 90.925781 -120.523438 92.296875 -118.910156 93.296875 -117.421875 C 93.796875 -122.066406 95.492188 -125.59375 98.390625 -128 C 101.296875 -130.40625 105.984375 -131.609375 112.453125 -131.609375 C 118.921875 -131.609375 123.644531 -131.109375 126.625 -130.109375 C 129.613281 -129.117188 131.726562 -127.421875 132.96875 -125.015625 C 134.21875 -122.609375 134.960938 -120.492188 135.203125 -118.671875 C 135.453125 -116.847656 135.578125 -114.023438 135.578125 -110.203125 L 135.578125 -7.21875 C 135.578125 11.851562 128.941406 27.234375 115.671875 38.921875 C 102.410156 50.617188 87.488281 56.46875 70.90625 56.46875 C 58.300781 56.46875 46.273438 53.398438 34.828125 47.265625 C 23.378906 41.128906 17.65625 35.570312 17.65625 30.59375 C 17.65625 24.125 20.144531 18.40625 25.125 13.4375 C 28.28125 9.945312 30.726562 7.539062 32.46875 6.21875 C 34.207031 4.894531 36.238281 4.234375 38.5625 4.234375 C 40.882812 4.234375 43.289062 5.226562 45.78125 7.21875 C 53.738281 13.351562 62.363281 16.421875 71.65625 16.421875 C 77.957031 16.421875 83.097656 13.929688 87.078125 8.953125 C 91.054688 3.984375 93.046875 -1.984375 93.046875 -8.953125 Z M 48.765625 -67.28125 C 48.765625 -61.894531 50.878906 -57.046875 55.109375 -52.734375 C 59.335938 -48.421875 64.476562 -46.265625 70.53125 -46.265625 C 76.582031 -46.265625 81.597656 -48.460938 85.578125 -52.859375 C 89.554688 -57.253906 91.546875 -62.0625 91.546875 -67.28125 C 91.546875 -72.507812 89.640625 -77.40625 85.828125 -81.96875 C 82.015625 -86.53125 76.875 -88.8125 70.40625 -88.8125 C 63.9375 -88.8125 58.710938 -86.570312 54.734375 -82.09375 C 50.753906 -77.613281 48.765625 -72.675781 48.765625 -67.28125 Z M 48.765625 -67.28125 "/></g></g></g><g fill="#ffffff" fill-opacity="1"><g transform="translate(517.386119, 464.187356)"><g><path d="M 95.03125 -117.171875 C 96.03125 -126.460938 102.582031 -131.109375 114.6875 -131.109375 C 121.15625 -131.109375 125.960938 -130.609375 129.109375 -129.609375 C 132.265625 -128.617188 134.460938 -126.878906 135.703125 -124.390625 C 136.953125 -121.898438 137.703125 -119.703125 137.953125 -117.796875 C 138.203125 -115.890625 138.328125 -113.03125 138.328125 -109.21875 L 138.328125 -22.140625 C 138.328125 -18.328125 138.203125 -15.46875 137.953125 -13.5625 C 137.703125 -11.65625 136.992188 -9.457031 135.828125 -6.96875 C 133.515625 -2.65625 127.835938 -0.5 118.796875 -0.5 C 109.753906 -0.5 103.695312 -1.617188 100.625 -3.859375 C 97.5625 -6.097656 95.78125 -9.375 95.28125 -13.6875 C 89.144531 -4.894531 78.90625 -0.5 64.5625 -0.5 C 50.21875 -0.5 36.90625 -7.050781 24.625 -20.15625 C 12.351562 -33.257812 6.21875 -48.472656 6.21875 -65.796875 C 6.21875 -83.128906 12.394531 -98.304688 24.75 -111.328125 C 37.101562 -124.347656 50.660156 -130.859375 65.421875 -130.859375 C 71.066406 -130.859375 76.207031 -129.863281 80.84375 -127.875 C 85.488281 -125.882812 88.722656 -124.015625 90.546875 -122.265625 C 92.378906 -120.523438 93.875 -118.828125 95.03125 -117.171875 Z M 49.75 -65.421875 C 49.75 -59.953125 51.90625 -55.019531 56.21875 -50.625 C 60.53125 -46.226562 65.753906 -44.03125 71.890625 -44.03125 C 78.035156 -44.03125 83.140625 -46.269531 87.203125 -50.75 C 91.265625 -55.226562 93.296875 -60.160156 93.296875 -65.546875 C 93.296875 -70.941406 91.34375 -75.960938 87.4375 -80.609375 C 83.539062 -85.253906 78.316406 -87.578125 71.765625 -87.578125 C 65.222656 -87.578125 59.914062 -85.253906 55.84375 -80.609375 C 51.78125 -75.960938 49.75 -70.898438 49.75 -65.421875 Z M 49.75 -65.421875 "/></g></g></g><g fill="#ffffff" fill-opacity="1"><g transform="translate(669.386755, 464.187356)"><g><path d="M 203.75 -175.390625 C 205.070312 -172.898438 205.859375 -170.660156 206.109375 -168.671875 C 206.359375 -166.679688 206.484375 -163.78125 206.484375 -159.96875 L 206.484375 -21.890625 C 206.484375 -10.453125 203.332031 -3.734375 197.03125 -1.734375 C 193.882812 -0.742188 189.90625 -0.25 185.09375 -0.25 C 180.28125 -0.25 176.460938 -0.660156 173.640625 -1.484375 C 170.828125 -2.316406 168.671875 -3.3125 167.171875 -4.46875 C 165.679688 -5.632812 164.523438 -7.296875 163.703125 -9.453125 C 162.867188 -12.273438 162.453125 -16.585938 162.453125 -22.390625 L 162.453125 -105.734375 C 158.304688 -100.585938 152.253906 -92.414062 144.296875 -81.21875 C 136.335938 -70.03125 131.28125 -63.023438 129.125 -60.203125 C 126.96875 -57.378906 125.472656 -55.425781 124.640625 -54.34375 C 123.804688 -53.269531 121.769531 -51.78125 118.53125 -49.875 C 115.300781 -47.96875 111.820312 -47.015625 108.09375 -47.015625 C 104.363281 -47.015625 100.960938 -47.882812 97.890625 -49.625 C 94.828125 -51.375 92.628906 -53.078125 91.296875 -54.734375 L 89.3125 -57.46875 C 86 -61.613281 79.445312 -70.441406 69.65625 -83.953125 C 59.875 -97.472656 54.566406 -104.734375 53.734375 -105.734375 L 53.734375 -21.890625 C 53.734375 -18.078125 53.609375 -15.21875 53.359375 -13.3125 C 53.109375 -11.40625 52.320312 -9.289062 51 -6.96875 C 48.507812 -2.488281 42.039062 -0.25 31.59375 -0.25 C 21.476562 -0.25 15.175781 -2.488281 12.6875 -6.96875 C 11.363281 -9.289062 10.578125 -11.445312 10.328125 -13.4375 C 10.078125 -15.425781 9.953125 -18.410156 9.953125 -22.390625 L 9.953125 -160.46875 C 9.953125 -164.28125 10.078125 -167.140625 10.328125 -169.046875 C 10.578125 -170.953125 11.363281 -173.148438 12.6875 -175.640625 C 15.175781 -179.953125 21.644531 -182.109375 32.09375 -182.109375 C 36.570312 -182.109375 40.425781 -181.566406 43.65625 -180.484375 C 46.894531 -179.410156 49.007812 -178.289062 50 -177.125 L 51.5 -175.640625 L 107.96875 -101.5 C 136.164062 -138.820312 154.988281 -163.453125 164.4375 -175.390625 C 167.257812 -179.867188 173.9375 -182.109375 184.46875 -182.109375 C 195 -182.109375 201.425781 -179.867188 203.75 -175.390625 Z M 203.75 -175.390625 "/></g></g></g><g fill="#ffffff" fill-opacity="1"><g transform="translate(889.551352, 464.187356)"><g><path d="M 95.03125 -117.171875 C 96.03125 -126.460938 102.582031 -131.109375 114.6875 -131.109375 C 121.15625 -131.109375 125.960938 -130.609375 129.109375 -129.609375 C 132.265625 -128.617188 134.460938 -126.878906 135.703125 -124.390625 C 136.953125 -121.898438 137.703125 -119.703125 137.953125 -117.796875 C 138.203125 -115.890625 138.328125 -113.03125 138.328125 -109.21875 L 138.328125 -22.140625 C 138.328125 -18.328125 138.203125 -15.46875 137.953125 -13.5625 C 137.703125 -11.65625 136.992188 -9.457031 135.828125 -6.96875 C 133.515625 -2.65625 127.835938 -0.5 118.796875 -0.5 C 109.753906 -0.5 103.695312 -1.617188 100.625 -3.859375 C 97.5625 -6.097656 95.78125 -9.375 95.28125 -13.6875 C 89.144531 -4.894531 78.90625 -0.5 64.5625 -0.5 C 50.21875 -0.5 36.90625 -7.050781 24.625 -20.15625 C 12.351562 -33.257812 6.21875 -48.472656 6.21875 -65.796875 C 6.21875 -83.128906 12.394531 -98.304688 24.75 -111.328125 C 37.101562 -124.347656 50.660156 -130.859375 65.421875 -130.859375 C 71.066406 -130.859375 76.207031 -129.863281 80.84375 -127.875 C 85.488281 -125.882812 88.722656 -124.015625 90.546875 -122.265625 C 92.378906 -120.523438 93.875 -118.828125 95.03125 -117.171875 Z M 49.75 -65.421875 C 49.75 -59.953125 51.90625 -55.019531 56.21875 -50.625 C 60.53125 -46.226562 65.753906 -44.03125 71.890625 -44.03125 C 78.035156 -44.03125 83.140625 -46.269531 87.203125 -50.75 C 91.265625 -55.226562 93.296875 -60.160156 93.296875 -65.546875 C 93.296875 -70.941406 91.34375 -75.960938 87.4375 -80.609375 C 83.539062 -85.253906 78.316406 -87.578125 71.765625 -87.578125 C 65.222656 -87.578125 59.914062 -85.253906 55.84375 -80.609375 C 51.78125 -75.960938 49.75 -70.898438 49.75 -65.421875 Z M 49.75 -65.421875 "/></g></g></g><g fill="#ffffff" fill-opacity="1"><g transform="translate(1041.551988, 464.187356)"><g><path d="M 86.078125 -87.078125 L 69.90625 -88.0625 L 69.90625 -53.734375 C 69.90625 -49.253906 70.609375 -46.019531 72.015625 -44.03125 C 73.429688 -42.039062 76.085938 -41.046875 79.984375 -41.046875 C 83.878906 -41.046875 86.863281 -40.921875 88.9375 -40.671875 C 91.007812 -40.421875 93.207031 -39.632812 95.53125 -38.3125 C 99.34375 -36.15625 101.25 -30.597656 101.25 -21.640625 C 101.25 -11.191406 98.925781 -4.804688 94.28125 -2.484375 C 91.800781 -1.328125 89.601562 -0.625 87.6875 -0.375 C 85.78125 -0.125 83.003906 0 79.359375 0 C 62.109375 0 49.003906 -3.894531 40.046875 -11.6875 C 31.097656 -19.488281 26.625 -32.675781 26.625 -51.25 L 26.625 -88.0625 C 23.46875 -87.570312 20.066406 -87.328125 16.421875 -87.328125 C 12.773438 -87.328125 9.75 -88.734375 7.34375 -91.546875 C 4.9375 -94.367188 3.734375 -99.179688 3.734375 -105.984375 C 3.734375 -112.785156 4.144531 -117.71875 4.96875 -120.78125 C 5.800781 -123.851562 6.960938 -126.050781 8.453125 -127.375 C 11.109375 -129.53125 14.425781 -130.609375 18.40625 -130.609375 L 26.625 -129.609375 L 26.625 -155.234375 C 26.625 -159.054688 26.742188 -161.878906 26.984375 -163.703125 C 27.234375 -165.523438 28.023438 -167.515625 29.359375 -169.671875 C 31.515625 -173.816406 37.898438 -175.890625 48.515625 -175.890625 C 59.785156 -175.890625 66.5 -172.820312 68.65625 -166.6875 C 69.488281 -164.03125 69.90625 -159.800781 69.90625 -154 L 69.90625 -129.609375 C 77.207031 -130.273438 82.722656 -130.609375 86.453125 -130.609375 C 90.179688 -130.609375 93 -130.484375 94.90625 -130.234375 C 96.8125 -129.984375 99.007812 -129.195312 101.5 -127.875 C 105.8125 -125.71875 107.96875 -119.332031 107.96875 -108.71875 C 107.96875 -98.269531 105.726562 -91.882812 101.25 -89.5625 C 98.757812 -88.394531 96.5625 -87.6875 94.65625 -87.4375 C 92.75 -87.195312 89.890625 -87.078125 86.078125 -87.078125 Z M 86.078125 -87.078125 "/></g></g></g><g fill="#ffffff" fill-opacity="1"><g transform="translate(1156.982925, 464.187356)"><g><path d="M 136.328125 -81.21875 C 136.328125 -71.019531 133.796875 -63.472656 128.734375 -58.578125 C 123.679688 -53.691406 118.085938 -51.25 111.953125 -51.25 L 52.984375 -51.25 C 52.984375 -46.601562 55.71875 -42.703125 61.1875 -39.546875 C 66.664062 -36.398438 72.144531 -34.828125 77.625 -34.828125 C 87.238281 -34.828125 94.785156 -35.820312 100.265625 -37.8125 L 103 -38.8125 C 106.976562 -40.632812 110.296875 -41.546875 112.953125 -41.546875 C 118.253906 -41.546875 122.8125 -37.8125 126.625 -30.34375 C 128.78125 -25.875 129.859375 -22.0625 129.859375 -18.90625 C 129.859375 -4.144531 112.195312 3.234375 76.875 3.234375 C 64.601562 3.234375 53.695312 1.117188 44.15625 -3.109375 C 34.625 -7.335938 27.203125 -12.9375 21.890625 -19.90625 C 11.441406 -33.332031 6.21875 -48.34375 6.21875 -64.9375 C 6.21875 -85.832031 12.972656 -102.539062 26.484375 -115.0625 C 40.003906 -127.582031 56.882812 -133.84375 77.125 -133.84375 C 100.175781 -133.84375 117.09375 -125.71875 127.875 -109.46875 C 133.507812 -100.84375 136.328125 -91.425781 136.328125 -81.21875 Z M 83.84375 -73.890625 C 90.144531 -73.890625 93.296875 -76.539062 93.296875 -81.84375 C 93.296875 -85.664062 91.84375 -88.734375 88.9375 -91.046875 C 86.03125 -93.367188 81.882812 -94.53125 76.5 -94.53125 C 71.113281 -94.53125 65.765625 -92.332031 60.453125 -87.9375 C 55.148438 -83.539062 52.5 -78.859375 52.5 -73.890625 Z M 83.84375 -73.890625 "/></g></g></g></svg>