<svg xmlns="http://www.w3.org/2000/svg" xmlns:xlink="http://www.w3.org/1999/xlink" width="1920" zoomAndPan="magnify" viewBox="0 0 1440 809.999993" height="1080" preserveAspectRatio="xMidYMid meet" version="1.0"><defs><clipPath id="d4fc8504d5"><path d="M 67.5 0 L 1372.5 0 C 1409.777344 0 1440 30.222656 1440 67.5 L 1440 742.5 C 1440 779.777344 1409.777344 810 1372.5 810 L 67.5 810 C 30.222656 810 0 779.777344 0 742.5 L 0 67.5 C 0 30.222656 30.222656 0 67.5 0 Z M 67.5 0 " clip-rule="nonzero"/></clipPath></defs><g clip-path="url(#d4fc8504d5)"><path fill="#ffffff" d="M 0 0 L 1439.648438 0 L 1439.648438 810 L 0 810 Z M 0 0 " fill-opacity="1" fill-rule="nonzero"/><path stroke-linecap="butt" transform="matrix(0.75, 0, 0, 0.75, 0.0000126595, 0.00002)" fill="none" stroke-linejoin="miter" d="M 89.999988 -0.0000266667 L 1830.000075 -0.0000266667 C 1879.703203 -0.0000266667 1920.00008 40.29685 1920.00008 89.999978 L 1920.00008 990.000023 C 1920.00008 1039.703151 1879.703203 1080.000028 1830.000075 1080.000028 L 89.999988 1080.000028 C 40.29686 1080.000028 -0.0000168794 1039.703151 -0.0000168794 990.000023 L -0.0000168794 89.999978 C -0.0000168794 40.29685 40.29686 -0.0000266667 89.999988 -0.0000266667 Z M 89.999988 -0.0000266667 " stroke="#f1c6cd" stroke-width="36" stroke-opacity="1" stroke-miterlimit="4"/></g></svg>